<?xml version="1.0" encoding="utf-8"?>
<!-- Generator: Adobe Illustrator 23.1.0, SVG Export Plug-In . SVG Version: 6.00 Build 0)  -->
<svg version="1.1" xmlns="http://www.w3.org/2000/svg" xmlns:xlink="http://www.w3.org/1999/xlink" x="0px" y="0px"
	 viewBox="0 0 720 720" style="enable-background:new 0 0 720 720;" xml:space="preserve">
<style type="text/css">
	.st0{display:none;}
	.st1{display:inline;fill:#FFFFFF;stroke:#000000;stroke-miterlimit:10;}
	.st2{display:inline;fill:none;stroke:#000000;stroke-miterlimit:10;}
	.st3{display:inline;fill:none;stroke:#1E1E1E;stroke-miterlimit:10;}
	.st4{display:inline;fill:none;stroke:#1E1E1E;stroke-width:4;stroke-miterlimit:10;}
	.st5{fill:none;stroke:#000000;stroke-width:4;stroke-miterlimit:10;}
	.st6{fill:#1E1E1E;}
	.st7{fill:none;stroke:#646464;stroke-miterlimit:10;}
	.st8{fill:#28A0F0;}
</style>
<g id="框线" class="st0">
	<line class="st1" x1="720" y1="720" x2="0" y2="0"/>
	<line class="st1" x1="720" y1="0" x2="0" y2="720"/>
	<polyline class="st2" points="0,360 360,360 360,180 360,0 	"/>
	<line class="st2" x1="540" y1="180" x2="180" y2="180"/>
</g>
<g id="方块" class="st0">
	<rect x="180" y="180" class="st2" width="360" height="360"/>
	<path class="st2" d="M360,0"/>
	<rect x="90" y="90" class="st2" width="540" height="540"/>
	<path class="st2" d="M360,0"/>
</g>
<g id="左上角定位线" class="st0">
	<line class="st2" x1="90" y1="90" x2="90" y2="130"/>
</g>
<g id="顶部定位线" class="st0">
	<polyline class="st3" points="90,296.67 256.67,296.67 423.33,296.67 423.33,130 90,130 	"/>
	<line class="st3" x1="338.03" y1="381.97" x2="256.67" y2="296.67"/>
	<polyline class="st3" points="222.15,262.15 239.41,279.41 256.67,296.67 	"/>
	<path class="st4" d="M438.62,279.41"/>
	<line class="st3" x1="457.85" y1="262.15" x2="90" y2="262.15"/>
</g>
<g id="右半">
	<path class="st5" d="M630,630"/>
	<path class="st5" d="M90,630"/>
	<polygon class="st6" points="630,133.94 630,630 133.94,630 	"/>
</g>
<g id="左半">
	<path class="st7" d="M180,540"/>
	<polyline class="st8" points="423.33,296.67 90,630 90,130 256.67,296.67 423.33,296.67 	"/>
</g>
<g id="顶部补充">
	<polygon class="st8" points="438.62,279.41 239.41,279.41 90,130 90,630 440.59,279.41 	"/>
</g>
</svg>
